<?xml version="1.0" encoding="UTF-8" standalone="no"?>
<!DOCTYPE svg PUBLIC "-//W3C//DTD SVG 1.1//EN" "http://www.w3.org/Graphics/SVG/1.1/DTD/svg11.dtd">
<svg width="100%" height="100%" viewBox="0 0 178 178" version="1.1" xmlns="http://www.w3.org/2000/svg" xmlns:xlink="http://www.w3.org/1999/xlink" xml:space="preserve" xmlns:serif="http://www.serif.com/" style="fill-rule:evenodd;clip-rule:evenodd;stroke-linejoin:round;stroke-miterlimit:2;">
    <g transform="matrix(4.166667,0,0,4.166667,163.161844,151.76601)">
        <path d="M0,-30.328C0,-32.011 -1.297,-33.376 -2.897,-33.376L-32.9,-33.375C-34.5,-33.375 -35.797,-32.01 -35.797,-30.327L-35.797,-0.002C-35.797,1.681 -34.5,3.046 -32.9,3.046L-2.907,3.048C-1.308,3.048 -0.011,1.683 -0.011,-0.001L0,-30.328ZM-36.643,-0.011L-36.643,-30.327C-36.643,-32.501 -34.967,-34.264 -32.9,-34.264L-2.897,-34.265C-0.83,-34.265 0.845,-32.502 0.845,-30.328L0.835,-0.001C0.835,2.174 -0.841,3.937 -2.907,3.937L-32.9,3.935C-34.967,3.935 -36.643,2.172 -36.643,-0.002M-22.4,-25.653L-22.4,-16.314L-20.075,-16.314L-20.075,-28.281L-23.769,-28.283C-23.769,-28.283 -24.932,-24.269 -25.182,-23.389C-25.432,-22.508 -25.997,-19.649 -25.997,-19.169C-25.997,-19.649 -26.562,-22.508 -26.812,-23.389C-27.062,-24.269 -28.225,-28.283 -28.225,-28.283L-31.92,-28.281L-31.92,-16.314L-29.594,-16.314L-29.594,-25.653L-29.269,-23.869C-29.214,-23.537 -29.031,-22.874 -29.031,-22.874L-27.116,-16.322L-24.878,-16.322M-25.299,-4.316C-25.299,-4.316 -25.16,-4.323 -25.087,-4.323C-24.861,-4.323 -24.679,-4.515 -24.679,-4.753C-24.679,-4.822 -24.672,-4.973 -24.672,-4.973L-24.672,-12.532C-24.672,-12.532 -24.679,-12.683 -24.679,-12.752C-24.679,-12.989 -24.861,-13.182 -25.087,-13.182C-25.16,-13.182 -25.299,-13.189 -25.299,-13.189L-29.627,-13.195L-29.627,-4.313L-25.299,-4.316ZM-31.92,-2.075L-31.92,-15.43L-25.997,-15.43C-24.646,-15.43 -22.378,-14.935 -22.378,-11.623L-22.378,-5.882C-22.378,-2.57 -24.646,-2.075 -25.997,-2.075L-31.92,-2.075ZM-17.923,-26.23L-17.923,-27.642L-16.694,-27.642L-16.693,-26.232L-17.923,-26.23ZM-18.619,-25.589L-16,-25.589L-16,-28.282L-18.619,-28.282L-18.619,-25.589ZM-9.969,-21.822L-9.969,-16.316L-7.349,-16.316L-7.354,-22.102L-7.358,-22.374C-7.358,-23.559 -8.318,-24.517 -9.506,-24.517L-9.767,-24.521L-12.288,-24.521L-12.55,-24.517C-13.738,-24.517 -14.698,-23.559 -14.698,-22.374L-14.702,-22.102L-14.706,-16.316L-12.087,-16.316L-12.087,-21.819L-9.969,-21.822ZM-12.815,-22.557L-12.815,-17.04L-13.984,-17.04L-13.984,-21.822C-13.984,-21.822 -13.98,-21.948 -13.98,-22.096C-13.98,-22.197 -13.97,-22.304 -13.97,-22.374C-13.97,-23.156 -13.334,-23.787 -12.55,-23.787L-12.288,-23.79L-9.767,-23.789L-9.506,-23.787C-8.721,-23.787 -8.086,-23.156 -8.086,-22.374C-8.086,-22.304 -8.076,-22.197 -8.076,-22.096C-8.076,-21.948 -8.072,-21.822 -8.072,-21.822L-8.072,-17.04L-9.24,-17.04L-9.24,-22.554L-12.815,-22.557ZM-15.418,-7.643L-15.418,-9.93L-11.403,-9.93L-11.403,-11.159L-15.467,-11.159C-16.277,-11.159 -16.567,-10.651 -16.567,-10.079L-16.567,-7.632C-16.567,-6.694 -16.081,-6.407 -15.467,-6.407L-12.424,-6.407L-12.424,-4.121L-16.423,-4.121L-16.423,-2.888L-12.382,-2.888C-11.453,-2.888 -11.27,-3.424 -11.27,-4.03L-11.27,-6.448C-11.27,-7.237 -11.702,-7.643 -12.381,-7.643L-15.418,-7.643ZM-14.696,-9.198L-14.696,-8.373L-12.381,-8.371C-10.946,-8.371 -10.541,-7.203 -10.541,-6.437L-10.541,-4.03C-10.541,-2.566 -11.539,-2.159 -12.381,-2.159L-17.151,-2.159L-17.151,-4.855L-13.152,-4.855L-13.152,-5.68L-15.468,-5.68C-16.967,-5.68 -17.295,-6.849 -17.295,-7.632L-17.295,-10.079C-17.295,-11.514 -16.201,-11.891 -15.467,-11.891L-10.675,-11.891L-10.675,-9.198L-14.696,-9.198M-24.882,-16.322L-22.968,-22.874C-22.968,-22.874 -22.785,-23.537 -22.73,-23.869L-22.405,-25.653M-26.812,-23.389C-28.5,-29.332 -28.225,-28.283 -28.225,-28.283M-18.619,-16.316L-16,-16.316L-16,-24.521L-18.619,-24.521L-18.619,-16.316ZM-16.728,-17.04L-17.896,-17.04L-17.896,-23.789L-16.73,-23.79L-16.73,-17.054M-3.378,-9.193L-6.964,-9.193L-6.964,-4.899L-3.377,-4.899L-3.377,-2.203L-7.738,-2.203C-9.253,-2.203 -9.574,-3.224 -9.574,-4.03L-9.574,-10.079C-9.574,-11.508 -8.645,-11.893 -7.738,-11.893L-3.382,-11.893L-3.378,-9.193ZM-4.106,-11.163L-7.738,-11.163C-8.308,-11.163 -8.846,-11.034 -8.846,-10.079L-8.846,-4.03C-8.846,-3.458 -8.721,-2.935 -7.738,-2.935L-4.105,-2.935L-4.105,-4.167L-7.692,-4.167L-7.692,-9.93L-4.109,-9.93L-4.106,-11.163ZM-5.361,-26.23L-5.361,-27.642L-4.132,-27.642L-4.131,-26.232L-5.361,-26.23ZM-6.056,-25.589L-3.437,-25.589L-3.437,-28.282L-6.056,-28.282L-6.056,-25.589ZM-6.056,-16.316L-3.437,-16.316L-3.437,-24.521L-6.056,-24.521L-6.056,-16.316ZM-4.165,-17.04L-5.333,-17.04L-5.333,-23.789L-4.168,-23.79L-4.168,-17.054M-20.281,-13.378L-20.281,-14.79L-19.053,-14.79L-19.051,-13.38L-20.281,-13.378ZM-20.977,-12.737L-18.358,-12.737L-18.358,-15.43L-20.977,-15.43L-20.977,-12.737ZM-16.554,-13.378L-16.554,-14.79L-15.325,-14.79L-15.324,-13.38L-16.554,-13.378ZM-17.249,-12.737L-14.63,-12.737L-14.63,-15.43L-17.249,-15.43L-17.249,-12.737ZM-12.827,-13.378L-12.827,-14.79L-11.598,-14.79L-11.596,-13.38L-12.827,-13.378ZM-13.522,-12.737L-10.903,-12.737L-10.903,-15.43L-13.522,-15.43L-13.522,-12.737ZM-9.099,-13.378L-9.099,-14.79L-7.871,-14.79L-7.869,-13.38L-9.099,-13.378ZM-9.795,-12.737L-7.176,-12.737L-7.176,-15.43L-9.795,-15.43L-9.795,-12.737ZM-5.372,-13.378L-5.372,-14.79L-4.143,-14.79L-4.142,-13.38L-5.372,-13.378ZM-6.067,-12.737L-3.448,-12.737L-3.448,-15.43L-6.067,-15.43L-6.067,-12.737ZM-20.977,-2.075L-18.358,-2.075L-18.358,-11.896L-20.977,-11.896L-20.977,-2.075ZM-19.086,-2.799L-20.254,-2.799L-20.254,-11.165L-19.088,-11.166L-19.088,-2.813" style="fill:rgb(35,31,32);fill-rule:nonzero;"/>
    </g>
</svg>
